<svg width="30" height="52" viewBox="0 0 30 52" fill="none" xmlns="http://www.w3.org/2000/svg">
<path d="M25.5414 0H30V15.0925H25.6362C23.3775 15.0925 21.5406 16.8985 21.4907 19.1452V19.1499H27.8665V32.1246H21.4907V51.2745H6.39809V32.1246H0V19.1499H6.39814C6.46088 8.60459 14.9883 0.071704 25.5256 0.00010009L25.5324 0H25.5414ZM25.5414 10.6339V4.45862C17.4226 4.54294 10.8711 11.1336 10.8502 19.2593V23.6085H4.45867V27.6659H10.8568V46.8158H17.032V27.6659H23.4079V23.6085H17.032V19.2613V19.2386C17.032 14.5175 20.834 10.6843 25.5433 10.6339H25.548H25.5414Z" fill="black"/>
</svg>
